<?xml version="1.0" encoding="UTF-8" standalone="no"?>
<!-- Created with Inkscape (http://www.inkscape.org/) -->

<svg
   xmlns:dc="http://purl.org/dc/elements/1.1/"
   xmlns:cc="http://creativecommons.org/ns#"
   xmlns:rdf="http://www.w3.org/1999/02/22-rdf-syntax-ns#"
   xmlns:svg="http://www.w3.org/2000/svg"
   xmlns="http://www.w3.org/2000/svg"
   xmlns:sodipodi="http://sodipodi.sourceforge.net/DTD/sodipodi-0.dtd"
   xmlns:inkscape="http://www.inkscape.org/namespaces/inkscape"
   width="1024"
   height="500"
   viewBox="0 0 1024 500.00001"
   id="svg2"
   version="1.1"
   inkscape:version="0.91 r13725"
   sodipodi:docname="playFeature.svg"
   inkscape:export-filename="C:\Projects\Mobile\React-Native\CanadianLegalDictionary\screenshots\logos\banner.png"
   inkscape:export-xdpi="90"
   inkscape:export-ydpi="90">
  <defs
     id="defs4" />
  <sodipodi:namedview
     id="base"
     pagecolor="#ffffff"
     bordercolor="#666666"
     borderopacity="1.0"
     inkscape:pageopacity="0.0"
     inkscape:pageshadow="2"
     inkscape:zoom="0.35"
     inkscape:cx="101.58041"
     inkscape:cy="-182.31699"
     inkscape:document-units="px"
     inkscape:current-layer="layer2"
     showgrid="false"
     units="px"
     inkscape:window-width="1474"
     inkscape:window-height="841"
     inkscape:window-x="-8"
     inkscape:window-y="-8"
     inkscape:window-maximized="1" />
  <metadata
     id="metadata7">
    <rdf:RDF>
      <cc:Work
         rdf:about="">
        <dc:format>image/svg+xml</dc:format>
        <dc:type
           rdf:resource="http://purl.org/dc/dcmitype/StillImage" />
        <dc:title></dc:title>
      </cc:Work>
    </rdf:RDF>
  </metadata>
  <g
     inkscape:label="base"
     inkscape:groupmode="layer"
     id="layer1"
     transform="translate(0,-552.36216)"
     style="display:inline"
     sodipodi:insensitive="true">
    <rect
       style="opacity:0.98999999;fill:#ff0000;fill-opacity:1;stroke:#3c71bc;stroke-width:3.97199988;stroke-miterlimit:3.79999995;stroke-dasharray:none;stroke-dashoffset:0;stroke-opacity:1"
       id="rect4548"
       width="6120"
       height="2845.7144"
       x="-4034.2856"
       y="1772.3624" />
    <rect
       style="display:inline;opacity:0.98999999;fill:#ff0000;fill-opacity:1;stroke:#3c71bc;stroke-width:0.68586874;stroke-miterlimit:3.79999995;stroke-dasharray:none;stroke-dashoffset:0;stroke-opacity:1"
       id="rect4548-3"
       width="1029.4905"
       height="504.41019"
       x="0.86748987"
       y="553.08606" />
  </g>
  <g
     inkscape:groupmode="layer"
     id="layer2"
     inkscape:label="draw"
     style="display:inline"
     transform="translate(0,-12)">
    <text
       xml:space="preserve"
       style="font-style:normal;font-variant:normal;font-weight:bold;font-stretch:normal;font-size:300.52032471px;line-height:125%;font-family:sans-serif;-inkscape-font-specification:'sans-serif, Bold';text-align:start;letter-spacing:0px;word-spacing:0px;writing-mode:lr-tb;text-anchor:start;display:inline;fill:#ffffff;fill-opacity:1;stroke:none;stroke-width:1px;stroke-linecap:butt;stroke-linejoin:miter;stroke-opacity:1"
       x="-1755.658"
       y="2435.8647"
       id="text4569-6-2-7-3-0-2-2"
       sodipodi:linespacing="125%"
       transform="scale(1.0036184,0.99639465)"><tspan
         sodipodi:role="line"
         id="tspan4571-9-4-8-8-4-5-4"
         x="-1755.658"
         y="2435.8647">LAW</tspan></text>
    <path
       style="display:inline;fill:#b1b033;fill-opacity:1;fill-rule:evenodd;stroke:#b1b033;stroke-width:25.34176826;stroke-linecap:butt;stroke-linejoin:miter;stroke-miterlimit:4;stroke-dasharray:none;stroke-opacity:1"
       d="m -1516.3851,1702.9453 -176.7342,-0.7424 c 13.9517,26.5377 54.4869,49.6977 90.318,49.1293 44.072,1.8526 86.4162,-48.3869 86.4162,-48.3869 z"
       id="path4624-4-3-5-6-5-1-1-4"
       inkscape:connector-curvature="0"
       sodipodi:nodetypes="cccc" />
    <path
       style="display:inline;fill:none;fill-rule:evenodd;stroke:#b1b033;stroke-width:25.34176826;stroke-linecap:butt;stroke-linejoin:miter;stroke-miterlimit:4;stroke-dasharray:none;stroke-opacity:1"
       d="m -1701.359,1694.9984 97.5373,-172.1636 101.4997,173.7383"
       id="path4641-7-7-98-6-2-8-2-2"
       inkscape:connector-curvature="0"
       sodipodi:nodetypes="ccc" />
    <path
       style="display:inline;fill:none;fill-rule:evenodd;stroke:#b1b033;stroke-width:25.34176826;stroke-linecap:butt;stroke-linejoin:miter;stroke-miterlimit:4;stroke-dasharray:none;stroke-opacity:1"
       d="m -1604.4312,1508.4004 132.8946,-1.5747 0,-57.7374"
       id="path4643-6-8-1-2-4-1-8-5"
       inkscape:connector-curvature="0"
       sodipodi:nodetypes="ccc" />
    <path
       style="display:inline;fill:#b1b033;fill-opacity:1;fill-rule:evenodd;stroke:#b1b033;stroke-width:25.34176826;stroke-linecap:butt;stroke-linejoin:miter;stroke-miterlimit:4;stroke-dasharray:none;stroke-opacity:1"
       d="m -1425.3038,1703.0429 176.7339,-0.7421 c -13.9517,26.5373 -54.4869,49.6977 -90.3177,49.1293 -44.0723,1.8523 -86.4162,-48.3872 -86.4162,-48.3872 z"
       id="path4624-8-6-5-4-6-3-9-3-6"
       inkscape:connector-curvature="0"
       sodipodi:nodetypes="cccc" />
    <path
       style="display:inline;fill:none;fill-rule:evenodd;stroke:#b1b033;stroke-width:25.34176826;stroke-linecap:butt;stroke-linejoin:miter;stroke-miterlimit:4;stroke-dasharray:none;stroke-opacity:1"
       d="m -1240.3302,1695.096 -97.5373,-172.1633 -101.4997,173.7379"
       id="path4641-1-9-5-87-8-7-2-9-0"
       inkscape:connector-curvature="0"
       sodipodi:nodetypes="ccc" />
    <path
       style="display:inline;fill:none;fill-rule:evenodd;stroke:#b1b033;stroke-width:25.34176826;stroke-linecap:butt;stroke-linejoin:miter;stroke-miterlimit:4;stroke-dasharray:none;stroke-opacity:1"
       d="m -1337.2577,1508.4983 -132.8946,-1.5747 0,-57.7378"
       id="path4643-9-2-6-4-8-0-3-7-53"
       inkscape:connector-curvature="0"
       sodipodi:nodetypes="ccc" />
    <flowRoot
       xml:space="preserve"
       id="flowRoot4561-7-1-1-1-8-3-6"
       style="font-style:normal;font-variant:normal;font-weight:bold;font-stretch:normal;font-size:39.99994278px;line-height:125%;font-family:sans-serif;-inkscape-font-specification:'sans-serif, Bold';text-align:start;letter-spacing:0px;word-spacing:0px;writing-mode:lr-tb;text-anchor:start;display:inline;fill:#ffffff;fill-opacity:1;stroke:none;stroke-width:1px;stroke-linecap:butt;stroke-linejoin:miter;stroke-opacity:1"
       transform="matrix(4.3459765,0,0,5.6315701,11580.034,-6486.0828)"><flowRegion
         id="flowRegion4563-6-1-4-8-5-8-6"><rect
           id="rect4565-3-6-6-8-3-7-7"
           width="238.57143"
           height="237.14285"
           x="-3065.7144"
           y="1499.1428"
           style="font-style:normal;font-variant:normal;font-weight:bold;font-stretch:normal;font-size:39.99994278px;line-height:125%;font-family:sans-serif;-inkscape-font-specification:'sans-serif, Bold';text-align:start;writing-mode:lr-tb;text-anchor:start;fill:#ffffff" /></flowRegion><flowPara
         id="flowPara4567-5-0-5-9-1-5-3">POCKET</flowPara></flowRoot>    <path
       style="display:inline;fill:#ffffff;fill-opacity:1;stroke:#222222;stroke-width:0;stroke-miterlimit:4;stroke-dasharray:none;stroke-opacity:1"
       d="m 377.30025,439.20654 c -0.2245,-6.27304 -1.61732,-70.15577 -0.83777,-145.55853 l 1.21902,-117.93093 -1.52362,-15.71945 c -0.23451,-2.41946 -3.27867,-10.91706 -3.97962,-12.8313 -1.73296,-4.73357 -9.37552,-2.79468 -10.0569,-10.59383 l -8.94453,-4.46517 -112.67262,0.54662 -139.59207,-4.83725 13.4897,-12.99282 c 3.67632,-3.88932 24.30856,-10.42221 31.74402,-11.33968 4.13404,-0.50998 49.28374,-8.085744 129.32865,-0.67357 l 129.22839,1.90396 0.39383,173.10134 -0.9191,145.91928 -2.29873,4.73428 -23.86607,30.64891 z"
       id="path4393-4-3-4-4-7-4-3-1-3-0-96"
       inkscape:connector-curvature="0"
       sodipodi:nodetypes="sscscsccccsscccccs" />
    <path
       style="display:inline;fill:#ffffff;fill-opacity:1;stroke:#222222;stroke-width:0;stroke-miterlimit:4;stroke-dasharray:none;stroke-opacity:1"
       d="m 356.23466,462.5686 c -0.2245,-6.2731 -1.61732,-70.15582 -0.83777,-145.55854 l 1.21903,-117.93093 -1.52362,-15.71945 c -0.23452,-2.41946 -3.27868,-10.91706 -3.97962,-12.8313 -1.73296,-4.73357 -9.37549,-2.79468 -10.05687,-10.59383 l -8.94453,-4.46518 -112.67263,0.54663 -139.592062,-4.83726 13.489701,-12.99281 c 3.676323,-3.88932 24.308551,-10.42221 31.744011,-11.33969 4.13405,-0.50998 49.28375,-8.08573 129.32865,-0.67356 l 129.22836,1.90396 0.39383,173.10134 -0.9191,145.91922 -2.29873,4.7343 -23.86607,30.649 z"
       id="path4393-4-3-4-4-7-4-3-1-3-0-1-4"
       inkscape:connector-curvature="0"
       sodipodi:nodetypes="sscscsccccsscccccs" />
    <path
       style="display:inline;fill:#000080;fill-rule:evenodd;stroke:#272727;stroke-width:13.07543182;stroke-linecap:butt;stroke-linejoin:miter;stroke-miterlimit:4;stroke-dasharray:none;stroke-opacity:1"
       d="m 57.488753,132.62884 c -1.085408,-13.15566 6.656138,-29.14821 16.629217,-36.874234 10.019476,-7.762 23.405107,-14.55629 23.405107,-14.55629 0,0 13.948233,-7.53062 21.301883,-10.15692 7.35352,-2.62629 24.20831,-5.28881 24.20831,-5.28881 l 289.089,1.08226 c 0,0 6.07646,2.57993 7.28084,4.86671 1.22383,2.32368 1.94441,6.62523 1.94441,6.62523 l 0.0321,329.368274 c 0,0 -0.52527,6.30307 -3.15147,7.35362 -2.62633,1.05048 -8.40419,3.67677 -8.40419,3.67677 l -19.9598,0.52528 0.27861,-322.153884 -254.22177,-0.0468 -19.93495,2.50671 -18.04105,5.083214 -13.94016,8.12497 c 0,0 -7.120406,4.45068 -8.216732,8.14911 -0.816744,2.75525 -1.39146,3.94278 1.823873,8.42613 2.903999,4.04928 19.158699,3.64492 19.158699,3.64492 l 65.65713,0 177.53696,0 c 0,0 10.50512,3.15151 11.03039,5.7778 0.52528,2.6263 3.67675,9.97985 3.67675,9.97985 l -1.05048,324.60915 c 0,0 -1.05051,8.4041 -3.67681,9.4546 -2.6262,1.0505 -6.82838,3.6768 -6.82838,3.6768 l -296.770307,0 c 0,0 -3.676777,-1.5758 -6.303074,-4.2021 -2.626329,-2.6263 -4.202049,-8.4041 -4.202049,-8.4041 3.920945,-112.04025 1.648102,-341.24869 1.648102,-341.24869 z"
       id="path4264-4-5-8-6-4-0-5-5-8-6-2-1-3-1"
       inkscape:connector-curvature="0"
       sodipodi:nodetypes="cscsccsccscccccccsscccsccsccsccc" />
    <path
       style="display:inline;fill:#ff0000;fill-rule:evenodd;stroke:none;stroke-width:1px;stroke-linecap:butt;stroke-linejoin:miter;stroke-opacity:1"
       d="m 212.32237,423.96906 2.87861,-49.51197 -76.57096,12.09012 12.66587,-22.45308 -50.66345,-57.57213 22.45312,-5.18144 -5.75721,-29.36185 30.51322,5.1815 8.06011,-22.45311 32.24037,37.42188 -23.02886,-84.05525 21.87742,4.60569 32.49563,-34.60634 30.5619,34.41032 21.87742,-4.60575 -23.02887,84.05528 32.24041,-37.42185 8.0601,22.45312 30.51322,-5.18142 -5.75724,29.36177 22.45316,5.1814 -50.66349,57.57217 12.66586,22.45308 -76.57089,-12.09008 2.87859,49.51196 -6.19701,-0.47774 z"
       id="path3338-1"
       inkscape:connector-curvature="0"
       sodipodi:nodetypes="ccccccccccccccccccccccccccc" />
    <path
       style="display:inline;fill:#ffffff;fill-opacity:0.99607843;fill-rule:evenodd;stroke:#fbfbfb;stroke-width:7.20402622;stroke-linecap:butt;stroke-linejoin:miter;stroke-miterlimit:4;stroke-dasharray:none;stroke-opacity:0.99934645"
       d="m 205.57015,334.52235 -50.56721,-0.2096 c 3.99188,7.49508 15.58983,14.03608 25.84182,13.87549 12.60987,0.52327 24.72539,-13.66589 24.72539,-13.66589 z"
       id="path4624-4-3-5-6-5-1-1-4-6-0"
       inkscape:connector-curvature="0"
       sodipodi:nodetypes="cccc" />
    <path
       style="display:inline;fill:none;fill-rule:evenodd;stroke:#fbfbfb;stroke-width:8.94120407;stroke-linecap:butt;stroke-linejoin:miter;stroke-miterlimit:4;stroke-dasharray:none;stroke-opacity:0.99934645"
       d="m 152.64541,332.27792 27.90739,-48.62416 29.0411,49.06895"
       id="path4641-7-7-98-6-2-8-2-2-7-1"
       inkscape:connector-curvature="0"
       sodipodi:nodetypes="ccc" />
    <path
       style="display:inline;fill:none;fill-rule:evenodd;stroke:#fbfbfb;stroke-width:8.94120407;stroke-linecap:butt;stroke-linejoin:miter;stroke-miterlimit:4;stroke-dasharray:none;stroke-opacity:0.99934645"
       d="m 180.37841,279.57702 38.02383,-0.44478 0,-16.3068"
       id="path4643-6-8-1-2-4-1-8-5-7-4"
       inkscape:connector-curvature="0"
       sodipodi:nodetypes="ccc" />
    <path
       style="display:inline;fill:#ffffff;fill-opacity:0.99607843;fill-rule:evenodd;stroke:#fbfbfb;stroke-width:7.20402622;stroke-linecap:butt;stroke-linejoin:miter;stroke-miterlimit:4;stroke-dasharray:none;stroke-opacity:0.99934645"
       d="m 231.63038,334.54996 50.56708,-0.20963 c -3.99187,7.49496 -15.58977,14.03611 -25.8417,13.87567 -12.60998,0.52312 -24.72538,-13.66604 -24.72538,-13.66604 z"
       id="path4624-8-6-5-4-6-3-9-3-6-1-7"
       inkscape:connector-curvature="0"
       sodipodi:nodetypes="cccc" />
    <path
       style="display:inline;fill:none;fill-rule:evenodd;stroke:#fbfbfb;stroke-width:8.94120407;stroke-linecap:butt;stroke-linejoin:miter;stroke-miterlimit:4;stroke-dasharray:none;stroke-opacity:0.99934645"
       d="M 284.55504,332.30553 256.64765,283.6813 227.60654,332.75021"
       id="path4641-1-9-5-87-8-7-2-9-0-9-2"
       inkscape:connector-curvature="0"
       sodipodi:nodetypes="ccc" />
    <path
       style="display:inline;fill:none;fill-rule:evenodd;stroke:#fbfbfb;stroke-width:8.94120407;stroke-linecap:butt;stroke-linejoin:miter;stroke-miterlimit:4;stroke-dasharray:none;stroke-opacity:0.99934645"
       d="m 256.82212,279.60457 -38.02384,-0.44468 0,-16.30687"
       id="path4643-9-2-6-4-8-0-3-7-53-6-1"
       inkscape:connector-curvature="0"
       sodipodi:nodetypes="ccc" />
    <text
       xml:space="preserve"
       style="font-style:normal;font-variant:normal;font-weight:bold;font-stretch:normal;font-size:114.27205658px;line-height:125%;font-family:'Adobe Gothic Std';-inkscape-font-specification:'Adobe Gothic Std, Bold';text-align:start;letter-spacing:0px;word-spacing:0px;writing-mode:lr-tb;text-anchor:start;display:inline;fill:#000080;fill-opacity:1;stroke:none;stroke-width:1px;stroke-linecap:butt;stroke-linejoin:miter;stroke-opacity:1;"
       x="575.40637"
       y="365.56079"
       id="text4668-2-9"
       sodipodi:linespacing="125%"
       transform="scale(0.82245629,1.2158701)"><tspan
         sodipodi:role="line"
         id="tspan4674-1-0"
         x="575.40637"
         y="365.56079">DICTIONARY</tspan></text>
    <text
       xml:space="preserve"
       style="font-style:normal;font-variant:normal;font-weight:bold;font-stretch:normal;font-size:114.27101135px;line-height:125%;font-family:'Adobe Gothic Std';-inkscape-font-specification:'Adobe Gothic Std, Bold';text-align:start;letter-spacing:0px;word-spacing:0px;writing-mode:lr-tb;text-anchor:start;display:inline;fill:#000080;fill-opacity:1;stroke:none;stroke-width:1px;stroke-linecap:butt;stroke-linejoin:miter;stroke-opacity:1;"
       x="576.97229"
       y="256.44986"
       id="text4668-2-9-1"
       sodipodi:linespacing="125%"
       transform="scale(0.82245629,1.2158701)"><tspan
         sodipodi:role="line"
         id="tspan4600"
         x="576.97229"
         y="256.44986">LEGAL</tspan></text>
    <text
       xml:space="preserve"
       style="font-style:normal;font-variant:normal;font-weight:bold;font-stretch:normal;font-size:114.27101135px;line-height:125%;font-family:'Adobe Gothic Std';-inkscape-font-specification:'Adobe Gothic Std, Bold';text-align:start;letter-spacing:0px;word-spacing:0px;writing-mode:lr-tb;text-anchor:start;display:inline;fill:#000080;fill-opacity:1;stroke:none;stroke-width:1px;stroke-linecap:butt;stroke-linejoin:miter;stroke-opacity:1;"
       x="578.4726"
       y="149.89789"
       id="text4668-2-9-10"
       sodipodi:linespacing="125%"
       transform="scale(0.82245629,1.2158701)"><tspan
         sodipodi:role="line"
         id="tspan4598"
         x="578.4726"
         y="149.89789">CANADIAN</tspan></text>
    <text
       xml:space="preserve"
       style="font-style:normal;font-variant:normal;font-weight:bold;font-stretch:normal;font-size:114.27205658px;line-height:125%;font-family:'Adobe Gothic Std';-inkscape-font-specification:'Adobe Gothic Std, Bold';text-align:start;letter-spacing:0px;word-spacing:0px;writing-mode:lr-tb;text-anchor:start;display:inline;fill:#ffffff;fill-opacity:1;stroke:none;stroke-width:1px;stroke-linecap:butt;stroke-linejoin:miter;stroke-opacity:1"
       x="571.15167"
       y="366.82629"
       id="text4668-2-9-2"
       sodipodi:linespacing="125%"
       transform="scale(0.82245629,1.2158701)"><tspan
         sodipodi:role="line"
         id="tspan4674-1-0-1"
         x="571.15167"
         y="366.82629">DICTIONARY</tspan></text>
    <text
       xml:space="preserve"
       style="font-style:normal;font-variant:normal;font-weight:bold;font-stretch:normal;font-size:114.27101135px;line-height:125%;font-family:'Adobe Gothic Std';-inkscape-font-specification:'Adobe Gothic Std, Bold';text-align:start;letter-spacing:0px;word-spacing:0px;writing-mode:lr-tb;text-anchor:start;display:inline;fill:#ffffff;fill-opacity:1;stroke:none;stroke-width:1px;stroke-linecap:butt;stroke-linejoin:miter;stroke-opacity:1"
       x="572.71759"
       y="257.71539"
       id="text4668-2-9-1-6"
       sodipodi:linespacing="125%"
       transform="scale(0.82245629,1.2158701)"><tspan
         sodipodi:role="line"
         id="tspan4600-3"
         x="572.71759"
         y="257.71539">LEGAL</tspan></text>
    <text
       xml:space="preserve"
       style="font-style:normal;font-variant:normal;font-weight:bold;font-stretch:normal;font-size:114.27101135px;line-height:125%;font-family:'Adobe Gothic Std';-inkscape-font-specification:'Adobe Gothic Std, Bold';text-align:start;letter-spacing:0px;word-spacing:0px;writing-mode:lr-tb;text-anchor:start;display:inline;fill:#ffffff;fill-opacity:1;stroke:none;stroke-width:1px;stroke-linecap:butt;stroke-linejoin:miter;stroke-opacity:1"
       x="574.2179"
       y="151.16341"
       id="text4668-2-9-10-8"
       sodipodi:linespacing="125%"
       transform="scale(0.82245629,1.2158701)"><tspan
         sodipodi:role="line"
         id="tspan4598-8"
         x="574.2179"
         y="151.16341">CANADIAN</tspan></text>
  </g>
</svg>
